<svg width="17" height="17" viewBox="0 0 17 17" fill="none" xmlns="http://www.w3.org/2000/svg">
<path d="M15.0591 2.98663H1.14602C0.575583 2.98663 0.102539 2.46832 0.102539 1.84329C0.102539 1.21827 0.575583 0.699951 1.14602 0.699951H15.0591C15.6295 0.699951 16.1025 1.21827 16.1025 1.84329C16.1025 2.46832 15.6295 2.98663 15.0591 2.98663Z" fill="white"/>
<path d="M15.0591 9.84326H1.14602C0.575583 9.84326 0.102539 9.32495 0.102539 8.69992C0.102539 8.07489 0.575583 7.55658 1.14602 7.55658H15.0591C15.6295 7.55658 16.1025 8.07489 16.1025 8.69992C16.1025 9.32495 15.6295 9.84326 15.0591 9.84326Z" fill="white"/>
<path d="M15.0591 16.7H1.14602C0.575583 16.7 0.102539 16.1816 0.102539 15.5566C0.102539 14.9316 0.575583 14.4133 1.14602 14.4133H15.0591C15.6295 14.4133 16.1025 14.9316 16.1025 15.5566C16.1025 16.1816 15.6295 16.7 15.0591 16.7Z" fill="white"/>
</svg>
