<svg width="16" height="16" viewBox="0 0 16 16" fill="none" xmlns="http://www.w3.org/2000/svg">
<path d="M10.3704 7.99597L15.5136 2.85531C16.1621 2.20714 16.1621 1.1343 15.5136 0.486129C14.8651 -0.162043 13.7918 -0.162043 13.1433 0.486129L8.00002 5.62679L2.85671 0.486129C2.20822 -0.162043 1.13485 -0.162043 0.486372 0.486129C-0.162124 1.1343 -0.162124 2.20714 0.486372 2.85531L5.62966 7.99597L0.486372 13.1367C-0.162124 13.7848 -0.162124 14.8577 0.486372 15.5058C0.821801 15.8411 1.24665 15.9975 1.67153 15.9975C2.09641 15.9975 2.52128 15.8411 2.85671 15.5058L8.00002 10.3652L13.1433 15.5058C13.4787 15.8411 13.9036 15.9975 14.3284 15.9975C14.7533 15.9975 15.1782 15.8411 15.5136 15.5058C16.1621 14.8577 16.1621 13.7848 15.5136 13.1367L10.3704 7.99597Z" fill="white"/>
</svg>
